<svg width="85" height="46" viewBox="0 0 85 46" fill="none" xmlns="http://www.w3.org/2000/svg">
<g id="CODlab-ball">
<path id="Vector" d="M79.29 18.3489C77.1647 20.3555 74.6705 21.3529 71.7784 21.3647C69.0846 21.3757 66.3906 21.3544 63.697 21.3776C63.0396 21.3833 62.8084 21.1674 62.8106 20.5026C62.8311 14.3247 62.8218 8.14664 62.824 1.96862C62.8243 1.01963 62.8423 1.00527 63.7922 1.00486C66.5093 1.00369 69.2266 1.03009 71.9433 1.00059C77.0122 0.945548 81.2417 4.74569 82.0842 9.23894C82.7372 12.7224 81.7666 15.7386 79.29 18.3489ZM74.8596 3.15043C73.9659 2.82021 73.0415 2.60031 72.0893 2.59005C69.8604 2.56604 67.631 2.59382 65.402 2.57208C64.8611 2.56681 64.673 2.74213 64.6746 3.28288C64.6892 8.47639 64.6884 13.67 64.6736 18.8635C64.6721 19.404 64.8642 19.5758 65.4048 19.5689C67.3318 19.5444 69.2602 19.5241 71.1862 19.5739C72.1282 19.5983 73.0478 19.477 73.9299 19.2421C78.657 17.9832 81.2803 13.5943 80.17 9.04645C79.4949 6.28092 77.6938 4.28219 74.8596 3.15043Z" fill="white" stroke="white" stroke-width="0.5"/>
<path id="Vector_2" d="M3.89617 3.95974C5.81191 2.02937 8.04387 1.09351 10.6671 1.00508C15.1408 0.854272 18.975 4.08165 20.2534 8.07928C20.2599 8.09949 20.2766 8.12164 20.2728 8.1391C20.1898 8.52072 20.8265 9.03266 20.1744 9.27985C19.3863 9.57858 18.9044 9.26711 18.6597 8.53789C17.8039 5.98824 16.1741 4.2048 13.7613 3.27319C9.41389 1.59457 4.61143 3.88797 3.07779 8.52357C1.73158 12.5926 3.55938 17.1042 7.30779 18.9566C11.7711 21.1623 17.2422 18.8557 18.7012 13.8216C18.8551 13.2907 19.9193 12.9449 20.3395 13.2849C20.5432 13.4497 20.4528 13.664 20.3959 13.8721C19.5609 16.9242 17.7965 19.1394 15.0326 20.4423C10.1587 22.7399 4.45194 20.6751 2.01738 15.6727C1.06385 13.7134 0.766529 11.6263 1.18501 9.40642C1.58201 7.30049 2.43423 5.50221 3.89617 3.95974Z" fill="white" stroke="white" stroke-width="0.5"/>
<g id="letro-o-onoff">
<path fill-rule="evenodd" clip-rule="evenodd" d="M30.4148 1.00009C33.6641 1.00009 48.1387 0.999886 52.8651 1.00009C57.5915 1.0003 60.5455 6.69434 60.5455 10.8892C60.5455 15.0841 57.5915 21.3777 52.8651 21.3777H30.4148C26.87 21.3777 22.7344 16.8829 22.7344 10.8892C22.7344 4.89561 27.1654 1.00009 30.4148 1.00009ZM52.8651 3.9968H30.4148C29.2332 3.9968 25.9838 6.09421 25.6884 10.8892C25.393 15.6843 29.5286 18.0816 30.4148 18.0816H52.8651C56.1145 18.0816 57.5915 14.1853 57.5915 10.8892C57.5915 7.59315 55.1925 3.9968 52.8651 3.9968Z" fill="white"/>
</g>
<path id="Vector_3" d="M64.0653 34.4771C64.3845 33.777 64.6812 33.1248 64.978 32.4727C65.0469 32.474 65.1158 32.4754 65.1847 32.4768C65.7404 33.7308 66.296 34.9849 66.8882 36.3218C65.6344 36.3218 64.4926 36.3218 63.2656 36.3218C63.5406 35.686 63.7917 35.1055 64.0653 34.4771Z" fill="#0FB0C6"/>
<path id="Vector_4" d="M64.3795 45.3734C61.5264 45.3734 58.7397 45.3797 55.9531 45.3718C50.6629 45.3569 46.5325 41.826 45.5405 36.4807C44.6456 31.6587 47.5014 26.573 52.2106 24.8322C53.4095 24.389 54.7518 24.1567 56.0318 24.1421C62.1573 24.0724 68.284 24.0942 74.4101 24.1161C79.4165 24.134 83.5475 27.4647 84.7174 32.3701C85.8327 37.0468 83.5631 42.0168 79.2609 44.2627C77.7858 45.0327 76.203 45.3864 74.5309 45.378C71.1693 45.3611 67.8075 45.3733 64.3795 45.3734ZM77.139 29.3845C75.4455 29.3845 73.7521 29.3845 72.0939 29.3845C72.0416 29.5071 72.0098 29.5469 72.0098 29.5868C72.0019 33.042 71.999 36.4973 71.987 39.9525C71.9858 40.3089 72.1482 40.4035 72.4739 40.4013C73.9998 40.3906 75.5278 40.4443 77.0513 40.3821C79.4243 40.2853 80.8316 38.0351 79.9187 35.8298C79.7203 35.3508 79.3748 34.9329 79.0926 34.4797C80.6456 32.0684 79.1627 29.4977 77.139 29.3845ZM65.2418 37.9018C65.3744 37.9018 65.5069 37.9017 65.6395 37.9017C67.3624 37.9017 67.3624 37.9017 68.0229 39.4855C68.4375 40.4799 68.8437 40.6456 69.9906 40.2529C69.9174 40.0498 69.8517 39.8431 69.7696 39.6432C68.4349 36.3914 67.0921 33.143 65.7703 29.886C65.6268 29.5324 65.4736 29.3581 65.0634 29.3567C64.6505 29.3553 64.5027 29.5353 64.3599 29.8872C63.3453 32.3866 62.3037 34.8751 61.2764 37.3694C60.8761 38.3416 60.4905 39.3199 60.0571 40.3976C60.4645 40.3976 60.7503 40.3651 61.0258 40.4046C61.5568 40.4807 61.8363 40.2735 61.9866 39.7596C62.116 39.3168 62.3657 38.9101 62.5062 38.4696C62.6412 38.0465 62.8606 37.8627 63.3205 37.8924C63.9146 37.9308 64.513 37.9018 65.2418 37.9018ZM58.6592 39.0577C58.4438 38.9714 58.2293 38.8133 58.0126 38.8102C56.4887 38.7884 54.9643 38.8002 53.44 38.797C53.2065 38.7965 52.973 38.7744 52.667 38.7585C52.667 35.5966 52.667 32.5104 52.667 29.4066C52.1346 29.4066 51.6796 29.4066 51.1983 29.4066C51.1733 29.5645 51.1359 29.6913 51.1358 29.818C51.1324 33.1592 51.14 36.5004 51.1247 39.8415C51.1226 40.3056 51.3224 40.3892 51.7242 40.3868C53.867 40.3738 56.0098 40.3817 58.1526 40.3783C58.3014 40.3781 58.4501 40.3447 58.6644 40.3189C58.6644 39.9227 58.6644 39.5521 58.6592 39.0577Z" fill="#0FB0C6"/>
<path id="Vector_5" d="M75.0669 35.4282C75.7053 35.429 76.277 35.4105 76.847 35.4347C78.0166 35.4844 78.6707 36.1584 78.6585 37.2696C78.6462 38.3907 77.9844 39.0254 76.7986 39.0345C75.7095 39.0428 74.6203 39.0363 73.4546 39.0363C73.4546 37.9057 73.4389 36.8566 73.4745 35.8093C73.4789 35.6778 73.7413 35.4725 73.9058 35.4467C74.2629 35.3907 74.634 35.4286 75.0669 35.4282Z" fill="#0FB0C6"/>
<path id="Vector_6" d="M77.3658 33.7604C76.1747 33.8023 75.0367 33.8428 73.8995 33.8262C73.7502 33.8241 73.4854 33.5363 73.4772 33.3694C73.4344 32.4985 73.4573 31.624 73.4573 30.6837C74.7716 30.6837 76.038 30.6145 77.2928 30.7135C77.8995 30.7614 78.154 31.4111 78.197 32.0246C78.2467 32.7329 78.1034 33.3897 77.3658 33.7604Z" fill="#0FB0C6"/>
<ellipse id="ball" cx="47.3654" cy="10.9349" rx="5.9611" ry="5.96125" fill="#0FB0C6"/>
</g>
</svg>
